<?xml version="1.0" encoding="utf-8"?>
<!-- Generator: Adobe Illustrator 27.5.0, SVG Export Plug-In . SVG Version: 6.00 Build 0)  -->
<svg version="1.1" id="Layer_1" xmlns="http://www.w3.org/2000/svg" xmlns:xlink="http://www.w3.org/1999/xlink" x="0px" y="0px"
	 viewBox="0 0 4000 4000" style="enable-background:new 0 0 4000 4000;" xml:space="preserve">
<g>
	<g>
		<rect style="fill:#28DDDD;" width="4000" height="4000"/>
	</g>
	<g>
		<g style="opacity:0.2;">
			<ellipse style="fill:#650000;" cx="1990" cy="3299.472" rx="1105" ry="160.528"/>
		</g>
		<g>
			<g>
				<path style="fill:#D68650;" d="M1673.75,2377.05c0,0-5.95,5.6-16.4,16.75c-47.4,50.8-187,216.85-272,490.9
					c-15.25,49.1-51.35,89.75-99.6,107.6c-54.7,20.25-126.4,13.05-186.65-105.95c-3.6-7.05-7.15-14.5-10.65-22.4
					c-8.95-20.15-13.9-41.8-14.55-63.8c-2.75-90.1,8.25-345.15,199.1-541.3c34.75-35.75,75.5-69.55,123.25-100.05l154.45,121.5
					L1673.75,2377.05z"/>
			</g>
			<g>
				<path style="fill:#650000;" d="M1240.071,3024.78c-52.939,0.005-119.736-29.98-173.499-151.147
					c-10.242-23.091-15.823-47.568-16.589-72.759c-3.147-103.389,11.587-456.699,333.394-662.241
					c8.572-5.483,19.67-4.937,27.664,1.357l277.502,218.281c5.479,4.307,8.804,10.791,9.109,17.754
					c0.305,6.953-2.437,13.696-7.507,18.467l0,0c-1.804,1.699-181.646,173.843-281.946,497.271
					c-17.715,57.124-60.393,103.101-114.167,122.983C1279.209,3020.229,1260.688,3024.78,1240.071,3024.78z M1394.985,2188.223
					c-286.851,193.203-300.093,515.723-297.185,611.196c0.576,18.975,4.783,37.417,12.5,54.814
					c44.883,101.152,101.106,140.059,167.136,115.649c39.927-14.771,71.729-49.268,85.068-92.29
					c85.706-276.362,224.5-443.428,275.513-498.198L1394.985,2188.223z"/>
			</g>
		</g>
		<g>
			<g>
				<path style="fill:#D68650;" d="M3090.4,2083.75c-2.15,21.9-8.5,43.2-18.75,62.65c-41,77.8-170.6,285.7-420.75,367.05
					c-53.05,17.3-111.55,28.85-175.75,32.3l-87.6-213.7l-34-82.85l-12.35-30.15c0,0,246.3-59.95,501.05-299.65
					c4.85-4.55,9.95-8.85,15.25-12.75c35.5-26.6,80.25-39,124.45-31.85c22.2,3.6,44.55,12,63.3,28.55
					C3078.1,1932.35,3099.9,1986.4,3090.4,2083.75z"/>
			</g>
			<g style="opacity:0.3;">
				<path style="fill:#650000;" d="M3090.4,2083.75c-2.15,21.9-8.5,43.2-18.75,62.65c-41,77.8-170.6,285.7-420.75,367.05
					c0,0-3-32-17.05-88c0,0-2.8-29.75,17.6-34c5.087-1.075,9.841,0.512,14.109,3.498c22.656,15.851,52.903,15.477,76.828,1.615
					c106.608-61.766,327.232-223.44,302.863-493.213C3078.1,1932.35,3099.9,1986.4,3090.4,2083.75z"/>
			</g>
			<g>
				<path style="fill:#650000;" d="M2475.127,2569.648c-9.658,0-18.428-5.83-22.124-14.844l-133.955-326.665
					c-2.644-6.45-2.344-13.73,0.82-19.941c3.162-6.201,8.87-10.718,15.632-12.368l0,0c2.407-0.596,243.718-61.802,490.337-293.848
					c43.56-40.972,103.352-59.98,159.939-50.771c55.659,9.028,146.36,51.548,128.423,234.858
					c-2.463,25.132-9.663,49.18-21.406,71.484c-48.198,91.523-235.085,391.719-616.384,412.061
					C2475.979,2569.634,2475.552,2569.648,2475.127,2569.648z M2373.423,2234.648l117.314,286.089
					c344.8-26.816,515.22-300.957,559.727-385.474c8.843-16.797,14.27-34.917,16.123-53.857
					c10.779-110.142-18.989-171.704-88.474-182.979c-42.026-6.826-86.692,7.534-119.495,38.398
					C2647.891,2135.098,2444.8,2212.109,2373.423,2234.648z"/>
			</g>
		</g>
		<g>
			<g>
				<path style="fill:#D68650;" d="M2677.9,3308.4H1315.45c-77.6,0-133.55-16.7-173.8-41.9c-122.1-76.2-99.95-229.9-99.95-229.9
					c5.55-75.35,28-122.05,57.4-150.25c74.3-71.4,192.7-24.55,192.7-24.55c30.8-27.15,76.95-27.15,76.95-27.15
					c-69.9-199.95-9.25-409.2-9.25-409.2s8.4-39.45,68.5-83.65c28.1-20.65,67.55-42.35,122.7-61.5c6.4-2.25,13-4.45,19.85-6.6
					c94.25-29.65,230.25-51.8,426.15-51.8c0,0,181.6-15.85,356.85,27.3c22.05,5.45,44.05,11.8,65.55,19.25
					c23.9,8.3,47.15,17.9,69.35,29.1c59.8,30.05,111.65,71.4,145.4,127.9c0,0,9.9,34.15,17.05,88c10.65,79.5,15.35,202-26.3,321.2
					c0,0,46.15,0,76.95,27.15c0,0,230.55-91.2,250.1,174.8C2951.65,3036.6,2990.75,3308.4,2677.9,3308.4z"/>
			</g>
			<g>
				<path style="fill:#FFB98A;" d="M2517.173,2576.912c0,291.572-233.03,527.933-520.496,527.933s-520.496-236.361-520.496-527.933
					c0-112.842,34.907-217.425,94.362-303.208c94.271-29.659,230.247-51.79,426.134-51.79c0,0,230.201-20.123,422.438,46.542
					C2480.852,2355.243,2517.173,2461.743,2517.173,2576.912z"/>
			</g>
			<g>
				<ellipse style="fill:#FFB98A;" cx="1214.049" cy="3069.815" rx="106.333" ry="133.418"/>
			</g>
			<g>
				<ellipse style="fill:#FFB98A;" cx="2779.304" cy="3069.815" rx="106.333" ry="133.418"/>
			</g>
			<g style="opacity:0.3;">
				<path style="fill:#650000;" d="M2949.935,3018.811c-12.092,80.526-64.967,199.587-272.055,199.587H1315.474
					c-77.616,0-133.558-16.7-173.803-41.888c-67.232-41.957-90.699-107.384-98.247-157.746c-0.673,5.773-1.275,11.669-1.727,17.818
					c0,0-22.13,153.726,99.974,229.927c40.245,25.188,96.187,41.888,173.803,41.888H2677.88
					c312.882,0,273.777-271.815,273.777-271.815C2951.205,3030.45,2950.605,3024.57,2949.935,3018.811z"/>
			</g>
			<g style="opacity:0.3;">
				<path style="fill:#650000;" d="M1074.963,2732.46c0,0,7.151,12.852,25.558,24.306c57.903,36.031,134.092,0.159,146.118-66.971
					c14.746-82.317,47.406-210.812,112.868-264.327c0,0-55.718,184.949,9.263,409.206c0,0-34.113-6.12-76.977,27.104
					c0,0-96.671-48.336-192.714,24.586C1099.078,2886.363,1062.653,2834.677,1074.963,2732.46z"/>
			</g>
			<g style="opacity:0.3;">
				<path style="fill:#650000;" d="M2915.866,1896.65c-31.942,161.641-140.275,318.075-396.239,419.699
					c-33.552,13.367-69.574,25.714-108.333,37.042c-108.602,31.727-238.355,55.187-392.803,67.963
					c-151.066,12.508-280.497,11.005-391.193-1.664c-95.342-10.898-176.833-30.117-246.246-55.831
					c-65.816-24.372-120.734-54.542-166.419-89.061c37.31-38.384,81.063-74.674,132.33-107.42l165.829,130.451
					c6.871-2.416,13.958-4.778,21.312-7.086c101.194-31.834,247.213-55.616,457.545-55.616c0,0,194.978-17.018,383.14,29.311
					l-13.26-32.371c0,0,264.446-64.366,537.963-321.726C2904.7,1905.454,2910.176,1900.837,2915.866,1896.65z"/>
			</g>
			<g>
				<g>
					<path style="fill:#650000;" d="M1302.597,2840.459c2.465,1.243,3.849,2.012,5.629,3l4.873,2.844
						c3.203,1.902,6.256,3.918,9.248,6.006c6.002,4.146,11.783,8.521,17.252,13.264c11.083,9.316,21.161,19.802,30.249,31.157
						c9.061,11.372,16.943,23.74,23.623,36.736c6.547,13.076,11.568,26.909,15.196,40.994c3.536,14.111,5.579,28.547,5.941,42.874
						l0.223,5.364l-0.109,5.354c-0.082,3.562-0.186,7.126-0.41,10.664c-0.773,7.046-1.279,14.114-2.811,20.974
						c-5.173,27.603-15.626,53.494-30.811,75.972c-1.557,2.305-4.688,2.91-6.993,1.353c-1.661-1.123-2.44-3.062-2.162-4.922
						l0.007-0.034c3.95-26.118,7.079-51.187,7.128-75.598c0.193-24.333-2.778-48.071-10.802-69.88
						c-7.578-21.909-19.733-41.86-34.893-59.373c-7.509-8.826-15.945-16.921-24.832-24.446c-4.45-3.757-9.061-7.322-13.727-10.71
						c-2.333-1.694-4.718-3.301-7.044-4.875l-3.484-2.266l-2.92-1.782l-1.567-0.957c-11.261-6.868-14.822-21.565-7.953-32.827
						C1277.964,2838.662,1291.608,2834.951,1302.597,2840.459z"/>
				</g>
				<g>
					<path style="fill:#650000;" d="M2712.385,2883.127l-2.92,1.782l-3.484,2.266c-2.325,1.575-4.71,3.181-7.043,4.875
						c-4.666,3.389-9.276,6.953-13.727,10.71c-8.887,7.524-17.323,15.62-24.832,24.446c-15.16,17.512-27.315,37.463-34.893,59.373
						c-8.024,21.809-10.995,45.547-10.802,69.88c0.049,24.412,3.178,49.48,7.128,75.598l0.004,0.029
						c0.416,2.751-1.476,5.317-4.227,5.732c-1.982,0.3-3.871-0.603-4.927-2.158c-15.185-22.478-25.638-48.369-30.811-75.972
						c-1.532-6.86-2.038-13.928-2.811-20.974c-0.224-3.538-0.328-7.102-0.41-10.664l-0.109-5.354l0.223-5.364
						c0.362-14.326,2.406-28.762,5.941-42.874c3.628-14.084,8.65-27.917,15.196-40.994c6.679-12.996,14.562-25.364,23.622-36.736
						c9.088-11.355,19.166-21.841,30.25-31.157c5.469-4.744,11.25-9.119,17.252-13.264c2.991-2.087,6.045-4.104,9.248-6.006
						l4.873-2.844c1.78-0.989,3.164-1.758,5.629-3c11.777-5.942,26.14-1.213,32.082,10.564c5.636,11.172,1.67,24.67-8.805,31.101
						L2712.385,2883.127z"/>
				</g>
				<g>
					<path style="fill:#650000;" d="M1391.156,2826.201c2.865,5.242,5.298,11.902,7.552,18.132c2.196,6.392,4.192,12.92,6.03,19.59
						c1.839,6.677,3.6,13.433,4.845,20.637c1.098,7.324,2.345,14.622,2.242,23.296l-0.001,0.129
						c-0.029,2.419-2.013,4.358-4.432,4.329c-0.512-0.005-1.02-0.107-1.474-0.273c-8.199-3.047-14.915-7.576-21.088-12.507
						c-6.128-4.985-11.388-10.635-16.164-16.575c-4.809-5.933-9.169-12.161-12.945-18.706c-3.727-6.697-6.995-13.103-9.31-21.135
						c-3.668-12.725,3.674-26.011,16.398-29.68c10.995-3.169,22.411,1.882,27.677,11.523L1391.156,2826.201z"/>
				</g>
				<g>
					<path style="fill:#650000;" d="M2646.945,2843.118c-2.315,8.032-5.583,14.438-9.31,21.135
						c-3.777,6.545-8.137,12.773-12.946,18.706c-4.776,5.94-10.036,11.589-16.164,16.575c-6.173,4.932-12.89,9.46-21.088,12.507
						c-2.268,0.842-4.79-0.313-5.633-2.581c-0.178-0.481-0.267-0.972-0.275-1.455l0-0.149c-0.103-8.674,1.144-15.972,2.242-23.296
						c1.245-7.205,3.007-13.96,4.845-20.637c1.837-6.67,3.833-13.198,6.03-19.59c2.255-6.23,4.687-12.891,7.552-18.132l0.67-1.226
						c6.352-11.619,20.921-15.889,32.54-9.536C2645.448,2820.928,2649.991,2832.563,2646.945,2843.118z"/>
				</g>
			</g>
			<g>
				<path style="fill:#650000;" d="M2644.661,2422.332c6.545,17.009,11.413,33.752,15.906,50.935
					c2.205,8.567,4.041,17.197,6.079,25.823l4.983,26.069l3.955,26.272c1.105,8.792,2.023,17.612,2.983,26.44
					c1.022,8.823,1.232,17.712,1.882,26.582l0.791,13.323l0.176,13.357c-0.035,8.909,0.422,17.825-0.03,26.748
					c-0.321,8.923-0.649,17.856-1.113,26.782c-0.491,8.928-1.643,17.83-2.443,26.753l-1.392,13.374
					c-0.581,4.446-1.423,8.87-2.125,13.306l-4.51,26.582l-6.354,26.279l-3.326,13.096l-4.221,12.881
					c-2.83,8.579-5.768,17.117-8.754,25.62l-22.578-31.814h0.004c2.928,0.039,4.651,0.146,6.826,0.291
					c2.06,0.139,4.084,0.325,6.083,0.542c4.011,0.422,7.963,1.008,11.909,1.689c7.881,1.396,15.709,3.35,23.485,5.896
					c7.779,2.473,15.476,5.854,22.986,9.844c7.539,3.955,14.719,9.126,21.516,14.844l-24.607-4.294
					c2.706-1.045,4.512-1.648,6.684-2.395l6.185-1.97c4.103-1.257,8.201-2.383,12.311-3.45c8.213-2.134,16.52-3.782,24.878-5.247
					c16.758-2.715,33.882-4.084,51.267-3.508c17.362,0.581,35.025,3.142,52.258,8.481c17.211,5.305,33.927,13.523,48.671,24.475
					c14.786,10.913,27.434,24.414,37.796,39.084c9.935,14.895,17.885,30.688,23.873,46.858
					c12.139,32.319,16.517,65.935,19.305,97.493c1.547,17.349,1.348,33.962,0.105,50.803c-1.32,16.768-3.958,33.484-8.043,49.978
					c-4.125,16.479-9.78,32.717-17.073,48.337c-7.284,15.601-16.127,30.693-26.949,44.37
					c-10.716,13.696-22.809,26.511-36.505,37.239c-6.566,5.757-13.958,10.295-21.037,15.298c-3.633,2.336-7.429,4.37-11.145,6.555
					c-3.75,2.114-7.422,4.419-11.34,6.125c-30.746,15.295-63.59,24.319-96.292,29.16l-12.286,1.833l-12.28,1.082
					c-8.187,0.696-16.386,1.558-24.53,1.592c-8.083,0.186-16.482,0.547-24.305,0.564h-23.367h-93.468h-186.937h-373.874h-373.874
					h-186.937h-93.469h-23.367c-7.823-0.017-16.222-0.378-24.305-0.564c-8.144-0.034-16.343-0.896-24.53-1.592l-12.28-1.082
					l-12.286-1.833c-32.702-4.841-65.546-13.865-96.292-29.16c-3.918-1.707-7.59-4.011-11.34-6.125
					c-3.715-2.185-7.512-4.219-11.145-6.555c-7.078-5.002-14.471-9.541-21.037-15.298c-13.696-10.728-25.789-23.542-36.505-37.239
					c-10.823-13.677-19.665-28.77-26.949-44.37c-7.293-15.62-12.948-31.858-17.073-48.337c-4.085-16.494-6.723-33.21-8.043-49.978
					c-1.243-16.841-1.443-33.455,0.105-50.803c2.787-31.558,7.166-65.173,19.305-97.493c5.988-16.169,13.939-31.963,23.873-46.858
					c10.361-14.67,23.01-28.171,37.796-39.084c14.744-10.952,31.46-19.17,48.671-24.475c17.233-5.339,34.896-7.9,52.258-8.481
					c17.385-0.576,34.509,0.793,51.267,3.508c8.358,1.465,16.666,3.113,24.878,5.247c4.11,1.067,8.208,2.192,12.311,3.45l6.184,1.97
					c2.172,0.747,3.978,1.35,6.684,2.395l-24.608,4.294c6.797-5.718,13.977-10.889,21.516-14.844
					c7.511-3.989,15.208-7.371,22.986-9.844c7.775-2.546,15.604-4.5,23.485-5.896c3.946-0.681,7.898-1.267,11.909-1.689
					c1.999-0.217,4.023-0.403,6.082-0.542c2.176-0.144,3.899-0.251,6.827-0.291h0.004l-22.578,31.814
					c-2.734-8.589-5.62-17.141-8.21-25.781l-3.962-12.939l-3.113-13.13l-6.126-26.279l-4.218-26.575
					c-0.666-4.431-1.472-8.848-2.017-13.289l-1.272-13.354c-0.746-8.909-1.845-17.791-2.283-26.699l-1.025-26.719
					c-0.418-8.901,0.072-17.795,0.07-26.68l0.176-13.32l0.721-13.291c0.662-8.845,0.884-17.712,1.917-26.514
					c0.923-8.809,1.723-17.617,2.753-26.396c1.177-8.762,2.386-17.517,3.762-26.238c3.007-17.41,6.649-34.702,11.529-51.697
					c4.853-17.029,10.466-33.701,18.189-50.046c1.591-3.367,5.611-4.807,8.978-3.215c2.599,1.228,4.051,3.904,3.845,6.609
					l-0.026,0.315c-2.68,34.224-5.758,68.264-7.899,102.065c-0.34,8.481-0.846,16.929-1.385,25.364l-0.731,25.342
					c-0.364,8.435,0.079,16.88,0.074,25.303l0.084,12.629l0.581,12.605c0.501,8.389,0.505,16.809,1.404,25.151l2.19,25.039
					c0.758,8.333,2.161,16.575,3.2,24.858l1.659,12.405c0.616,4.121,1.486,8.193,2.214,12.29
					c5.093,32.991,14.423,64.802,24.078,96.399l0.282,0.923c3.858,12.627-3.25,25.989-15.876,29.846
					c-2.287,0.701-4.71,1.033-6.985,1.045h0l-3.558,0.178c-1.399,0.093-2.825,0.222-4.272,0.383c-2.883,0.3-5.788,0.737-8.674,1.23
					c-5.769,1.023-11.416,2.451-16.813,4.214c-5.447,1.704-10.463,3.999-15.194,6.479c-4.775,2.466-8.814,5.552-12.677,8.677
					l-0.12,0.095c-7.12,5.757-16.443,7.024-24.49,4.199l-4.32-1.531l-4.948-1.575c-3.344-1.025-6.76-1.96-10.187-2.852
					c-6.868-1.792-13.855-3.162-20.836-4.397c-13.989-2.261-28.066-3.35-41.825-2.891c-27.533,0.835-53.671,8.303-74.136,23.638
					c-10.279,7.603-19.193,17.058-26.857,27.803c-7.298,11.082-13.524,23.198-18.359,36.265
					c-9.873,26.179-13.882,54.978-16.537,85.354c-2.316,27.769-0.051,57.397,6.735,84.761c3.444,13.743,8.113,27.048,13.998,39.651
					c5.884,12.595,12.89,24.592,21.441,35.334c8.468,10.781,17.874,20.859,28.756,29.316c5.124,4.592,11.131,8.137,16.721,12.185
					c2.911,1.875,6.015,3.491,9.004,5.264c3.035,1.707,5.946,3.608,9.201,4.98c25.102,12.476,53.019,20.33,81.873,24.585
					l10.822,1.638l10.999,0.947c7.335,0.618,14.637,1.426,22.088,1.433c7.491,0.156,14.66,0.505,22.415,0.527h23.367h93.469h186.937
					h373.874h373.874h186.937h93.468h23.367c7.755-0.022,14.924-0.371,22.415-0.527c7.45-0.007,14.752-0.815,22.088-1.433
					l10.999-0.947l10.822-1.638c28.854-4.255,56.771-12.109,81.873-24.585c3.254-1.372,6.166-3.274,9.201-4.98
					c2.989-1.772,6.093-3.389,9.003-5.264c5.59-4.048,11.597-7.593,16.721-12.185c10.881-8.457,20.288-18.535,28.756-29.316
					c8.551-10.742,15.557-22.739,21.441-35.334c5.885-12.603,10.555-25.908,13.999-39.651c6.786-27.363,9.051-56.992,6.735-84.761
					c-2.655-30.376-6.664-59.175-16.537-85.354c-4.836-13.066-11.062-25.183-18.359-36.265c-7.664-10.745-16.577-20.2-26.856-27.803
					c-20.465-15.334-46.603-22.803-74.136-23.638c-13.759-0.459-27.837,0.63-41.825,2.891c-6.981,1.235-13.968,2.605-20.836,4.397
					c-3.427,0.891-6.843,1.826-10.188,2.852l-4.948,1.575l-4.32,1.531c-8.63,3.054-17.809,1.177-24.456-4.167l-0.154-0.127
					c-3.864-3.125-7.902-6.211-12.677-8.677c-4.731-2.48-9.747-4.775-15.194-6.479c-5.397-1.763-11.044-3.191-16.813-4.214
					c-2.885-0.493-5.791-0.93-8.674-1.23c-1.447-0.161-2.873-0.291-4.272-0.383l-3.558-0.178h0
					c-13.179,0-23.863-10.684-23.863-23.862c0-2.078,0.265-4.092,0.763-6.011l0.521-1.941c2.127-8.01,4.3-15.984,6.583-23.916
					l3.448-11.887l2.69-12.124l5.568-24.187l4.251-24.531c0.692-4.092,1.526-8.157,2.107-12.271l1.538-12.39
					c0.985-8.267,2.334-16.489,3.04-24.805c0.608-8.325,1.352-16.643,2.103-24.973c0.865-8.32,0.835-16.716,1.303-25.083
					l0.581-12.568l0.154-12.598c-0.017-8.401,0.415-16.821,0.04-25.234l-0.501-25.295l-1.191-25.33
					c-2.073-33.662-5.593-67.869-10.648-100.984l-0.077-0.503c-0.94-6.16,3.29-11.914,9.448-12.854
					C2637.768,2414.417,2642.801,2417.493,2644.661,2422.332z"/>
			</g>
		</g>
		<g>
			<g>
				<path style="fill:#D68650;" d="M2011.713,2340.351c1192.737-98.621,805.299-883.164,708.201-1050.724
					c-10.909-18.825-10.065-42.357,2.621-60.034c100.901-140.595,93.24-257.54,58.441-340.813
					c-40.178-96.146-127.57-163.854-229.574-185.149c-206.132-43.035-324.267,105.745-366.143,173.016
					c-11.531,18.523-32.875,28.388-54.511,25.575c-118.286-15.375-238.281-4.048-238.281-4.048s-120.225,8.536-234.38,43.13
					c-20.881,6.328-43.555,0.103-57.972-16.275c-52.356-59.479-193.324-186.835-389.588-110.528
					c-97.121,37.76-172.204,118.902-196.046,220.342c-20.649,87.858-8.998,204.473,113.625,326.586
					c15.417,15.353,20.114,38.427,12.445,58.789C1072.293,1601.449,818.976,2438.972,2011.713,2340.351z"/>
			</g>
			<g>
				
					<ellipse transform="matrix(0.9966 -0.0824 0.0824 0.9966 -152.9487 169.6128)" style="fill:#FFB98A;" cx="1978.343" cy="1937.742" rx="358.785" ry="249.038"/>
			</g>
			<g>
				<path style="fill:#FFB98A;" d="M1241.914,1235.414c35.157-47.437,108.516-136.849,212.357-214.359
					c16.389-12.234,17.673-36.233,3.011-50.492c-44.291-43.071-141.566-106.818-263.731-1.458c0,0-127.789,112.11-4.375,267.319
					C1202.767,1253.517,1228.911,1252.959,1241.914,1235.414z"/>
			</g>
			<g>
				<path style="fill:#FFB98A;" d="M2589.574,1123.982c-42.47-41.019-129.519-117.168-244.681-176.568
					c-18.176-9.375-23.385-32.839-11.263-49.311c36.615-49.761,122.099-128.619,259.91-44.755c0,0,144.468,89.598,48.222,262.97
					C2631.163,1135.411,2605.283,1139.153,2589.574,1123.982z"/>
			</g>
			<g style="opacity:0.3;">
				<path style="fill:#650000;" d="M1998.573,2181.433c-657.586,54.373-875.606-175.808-927.45-423.675
					c-8.212,295.261,142.298,648.599,940.59,582.593c798.292-66.007,888.723-439.268,832.127-729.17
					C2833.411,1864.197,2656.159,2127.06,1998.573,2181.433z"/>
			</g>
			<g style="opacity:0.7;">
				<path style="fill:#FFFFFF;" d="M2551.401,703.63c-206.131-43.035-324.267,105.745-366.143,173.016
					c-11.531,18.523-32.875,28.388-54.512,25.575c-118.286-15.374-238.28-4.048-238.28-4.048s-120.225,8.536-234.38,43.13
					c-20.881,6.328-43.555,0.103-57.972-16.274c-52.356-59.479-193.324-186.835-389.588-110.528
					c-83.676,32.533-150.901,97.315-183.183,179.488c37.951-57.868,94.246-103.173,160.543-128.949
					c204.062-79.338,350.63,53.077,405.067,114.919c13.917,15.81,35.235,22.502,55.591,18.115
					c13.458,22.448,65.8,32.163,125.012,21.712c61.862-10.919,109.155-39.951,110.453-66.637c8.275-0.782,12.91-1.113,12.91-1.113
					s124.762-11.776,247.747,4.209c22.496,2.924,44.688-7.333,56.677-26.592c43.54-69.943,166.369-224.634,380.69-179.89
					c69.63,14.537,132.602,49.98,179.542,100.829C2716.236,774.838,2639.284,721.977,2551.401,703.63z"/>
			</g>
			<g style="opacity:0.3;">
				<path style="fill:#650000;" d="M2223.128,1774.567c0,0-5.965,75.72-90.029,92.932c-97.094,19.879-95.033-58.865-95.033-58.865
					l-71.461-12.856l0,0l0,0h0l0,0l-68.379,24.419c0,0,14.966,77.336-84.074,73.674c-85.749-3.17-104.07-76.882-104.07-76.882
					s-83.793,104.266,34.478,197.347c0,0,36.792,162.391,252.072,144.59l0,0h0l0,0l0,0c215.281-17.801,224.9-184.029,224.9-184.029
					C2322.909,1863.655,2223.128,1774.567,2223.128,1774.567z"/>
			</g>
			<g>
				<g>
					<path style="fill:#650000;" d="M2148.26,2050.858c-21.39,39.957-65.221,77.501-153.526,84.803s-137.707-22.534-165.422-58.431
						c-35.734-46.433-35.238-103.009-35.238-103.009s155.111,31.123,178.918-101.516c45.216,126.931,193.162,70.751,193.162,70.751
						S2175.935,1999.182,2148.26,2050.858z"/>
				</g>
				<g>
					<path style="fill:#F90030;" d="M2148.26,2050.858c-21.39,39.957-65.221,77.501-153.526,84.803s-137.707-22.534-165.422-58.431
						C1829.313,2077.231,1963.868,1934.582,2148.26,2050.858z"/>
				</g>
				<g>
					<path style="fill:#650000;" d="M1968.613,2160.684c-58.088,0.005-104.971-16.245-139.644-48.457
						c-58.889-54.707-58.857-134.814-58.828-138.198c0.063-7.129,3.306-13.857,8.84-18.354s12.786-6.289,19.775-4.883
						c0.618,0.117,67.537,12.739,112.117-17.783c20.701-14.17,33.313-35.283,38.555-64.541
						c1.914-10.674,10.767-18.726,21.575-19.619c10.811-0.879,20.862,5.596,24.502,15.811c9.978,27.998,25.886,46.753,48.635,57.334
						c48.989,22.773,112.925-0.664,113.567-0.898c6.655-2.49,14.109-1.899,20.281,1.631s10.481,9.609,11.709,16.611
						c0.586,3.335,13.774,82.349-35.33,145.986c-33.433,43.33-86.484,68.281-157.678,74.17
						C1987.061,2160.288,1977.698,2160.684,1968.613,2160.684z M1821.245,2001.094c4.5,21.875,15.195,52.954,40.61,76.387
						c29.827,27.495,73.845,39.043,130.894,34.336c57.024-4.717,98.567-23.345,123.474-55.371
						c21.216-27.28,26.663-59.683,27.507-82.017c-30.042,6.27-77.151,10.625-119.463-8.921
						c-18.291-8.452-33.848-20.396-46.572-35.713c-10.034,17.197-23.418,31.533-40.073,42.876
						C1899.097,1998.906,1851.919,2002.329,1821.245,2001.094z"/>
				</g>
			</g>
			<g>
				<g>
					<path style="fill:#650000;" d="M1973.043,1872.678c91.056-12.1,111.128-65.814,114.39-100.286
						c2.059-21.758-11.466-41.578-32.484-47.567c-39.216-11.175-94.623-5.957-94.623-5.957s-57.207,4.074-94.022,22.221
						c-18.437,9.088-27.977,29.969-22.968,49.905C1851.741,1824.453,1879.81,1875.745,1973.043,1872.678z"/>
				</g>
				<g>
					<path style="fill:#650000;" d="M1995.981,1862.9l-0.249,4.846l-0.362,4.131c-0.272,2.717-0.608,5.364-1.02,7.996
						c-0.796,5.269-1.827,10.464-3.224,15.588c-2.691,10.256-6.275,20.408-11.206,30.125c-4.871,9.727-10.872,19.111-18.061,27.725
						c-7.244,8.557-15.692,16.26-24.953,22.769c-18.63,13.047-40.342,20.283-61.321,23.276c-21.125,2.979-41.547,1.86-61.4-1.138
						c-19.917-2.974-40.331-8.906-59.193-19.512c-18.877-10.41-35.828-26.306-46.746-45.273
						c-10.985-19.011-15.479-40.295-15.431-60.322c0.175-20.12,4.403-39.443,12.591-56.912c1.154-2.461,4.084-3.521,6.546-2.368
						c1.578,0.74,2.581,2.209,2.792,3.818l0.016,0.129c2.267,18.32,4.692,35.645,9.195,51.602
						c4.351,15.945,10.602,30.295,19.127,42.007c8.453,11.765,19.513,20.923,32.965,27.031c6.742,3.013,13.781,5.605,21.355,7.361
						c3.666,1.089,7.627,1.66,11.421,2.515c3.974,0.5,7.813,1.299,11.866,1.604c16.121,1.636,32.332,1.438,47.166-0.872
						c14.859-2.51,28.191-7.749,39.502-15.396c11.13-7.898,20.317-18.499,27.233-31.323c3.39-6.421,6.418-13.274,8.655-20.488
						c1.148-3.591,2.144-7.256,3.031-10.906c0.443-1.826,0.825-3.662,1.151-5.444l0.759-4.568l0.52-3.127
						c2.157-12.974,14.423-21.746,27.398-19.587C1988.177,1840.193,1996.608,1850.959,1995.981,1862.9z"/>
				</g>
				<g>
					<path style="fill:#650000;" d="M1995.492,1856.99l1.499,4.38c0.615,1.704,1.293,3.455,2.03,5.181
						c1.474,3.455,3.059,6.907,4.781,10.261c3.392,6.748,7.505,13.013,11.903,18.789c8.928,11.514,19.732,20.461,32.008,26.423
						c12.413,5.686,26.424,8.665,41.494,8.701c15.012-0.161,31.035-2.627,46.668-6.89c3.948-0.964,7.604-2.385,11.442-3.53
						c3.602-1.467,7.415-2.681,10.853-4.355c7.183-2.976,13.699-6.692,19.855-10.769c12.267-8.235,21.672-19.084,28.078-32.08
						c6.486-12.952,10.295-28.135,11.968-44.578c1.821-16.477,1.368-33.967,0.595-52.41l-0.004-0.098
						c-0.114-2.715,1.996-5.01,4.711-5.122c1.742-0.073,3.328,0.796,4.259,2.124c10.945,15.889,18.29,34.253,21.767,54.072
						c3.337,19.746,2.401,41.479-5.313,62.039c-7.655,20.5-21.765,38.965-38.675,52.334c-16.864,13.56-36.026,22.766-55.184,28.97
						c-19.092,6.218-39.052,10.674-60.38,11.206c-21.185,0.496-43.792-3.076-64.311-12.886
						c-10.204-4.902-19.802-11.111-28.354-18.364c-8.506-7.314-15.967-15.586-22.369-24.38c-6.46-8.774-11.663-18.201-16.002-27.876
						c-2.219-4.824-4.09-9.78-5.74-14.846c-0.839-2.529-1.605-5.085-2.32-7.72l-1.036-4.014l-1.042-4.741
						c-2.823-12.847,5.302-25.549,18.149-28.372c11.955-2.627,23.786,4.229,27.645,15.547L1995.492,1856.99z"/>
				</g>
			</g>
			<g>
				<path style="fill:#650000;" d="M1827.307,2372.29c-325.488,0-552.256-82.329-675.537-245.664
					c-187.456-248.364-73.113-609.941-33.601-714.844c4.407-11.704,1.682-24.819-6.943-33.408
					c-135.327-134.761-139.966-264.17-120.027-349.004c25.144-106.997,103.896-195.654,210.662-237.163
					c210.623-81.89,361.233,54.556,416.208,117.017c8.11,9.219,21.099,12.808,33.079,9.19
					c113.84-34.497,231.392-43.501,239.358-44.077c8.162-0.767,125.479-11.147,243.325,4.165c12.41,1.65,24.636-4.072,31.123-14.497
					c43.975-70.645,170.132-229.976,391.335-183.789c112.134,23.413,204.377,97.935,246.755,199.341
					c33.601,80.405,50.281,208.818-61.079,363.979c-7.095,9.893-7.629,23.276-1.357,34.092
					c56.206,96.997,228.381,434.888,84.265,710.664c-111.929,214.175-384.851,340.645-811.189,375.898
					C1948.369,2369.59,1886.191,2372.29,1827.307,2372.29z M2011.714,2340.352h0.049H2011.714z M1330.74,814.971
					c-34.58,0-71.858,6.396-111.545,21.826c-92.065,35.791-159.89,111.875-181.428,203.521
					c-24.946,106.138,11.128,208.472,107.217,304.16c21.936,21.846,28.982,54.883,17.954,84.17
					c-37.334,99.116-145.713,440.308,27.017,669.16c135.054,178.931,410.881,252.529,819.79,218.706
					c408.916-33.813,668.901-151.699,772.732-350.381c132.795-254.111-30.151-572.871-83.257-664.517
					c-15.691-27.07-14.167-60.815,3.882-85.972c79.07-110.171,97.844-217.041,55.803-317.642
					c-36.296-86.86-115.696-150.772-212.393-170.962c-191.653-40.02-302.283,100.137-340.947,162.246
					c-16.37,26.294-46.953,40.684-77.9,36.655c-114.089-14.834-231.782-4.063-232.954-3.955c-0.178,0.015-0.366,0.034-0.544,0.044
					c-1.179,0.083-119.031,8.794-229.143,42.163c-29.863,9.072-62.397-0.117-82.861-23.359
					C1544.333,897.856,1455.168,814.971,1330.74,814.971z"/>
			</g>
		</g>
		<g style="opacity:0.4;">
			
				<ellipse transform="matrix(0.9966 -0.0824 0.0824 0.9966 -138.2906 166.911)" style="fill:#FFFFFF;" cx="1952.947" cy="1758.817" rx="45.56" ry="15.946"/>
		</g>
		<g>
			<g>
				
					<ellipse transform="matrix(0.0024 -1 1 0.0024 7.6944 3169.8223)" style="fill:#FFFFFF;" cx="1592.627" cy="1581.055" rx="188.134" ry="148.315"/>
			</g>
			<g>
				<path style="fill:#650000;" d="M1592.466,1788.398c-0.117,0-0.227,0-0.344,0c-92.373-0.225-167.297-93.423-167.021-207.754l0,0
					c0.134-54.546,17.153-105.972,47.92-144.805c31.75-40.073,74.277-62.129,119.768-62.129c0.117,0,0.227,0,0.344,0
					c92.373,0.225,167.297,93.423,167.021,207.754c-0.134,54.546-17.153,105.972-47.92,144.805
					C1680.483,1766.343,1637.957,1788.398,1592.466,1788.398z M1463.523,1580.742c-0.227,93.145,57.505,169.063,128.691,169.238
					c0.081,0,0.164,0,0.244,0c33.521,0,65.352-16.885,89.661-47.568c25.432-32.1,39.5-75.088,39.612-121.045
					c0.227-93.145-57.505-169.063-128.691-169.238c-0.081,0-0.164,0-0.244,0c-33.521,0-65.352,16.885-89.661,47.568
					C1477.703,1491.797,1463.635,1534.785,1463.523,1580.742L1463.523,1580.742z"/>
			</g>
			<g>
				
					<ellipse transform="matrix(0.0024 -1 1 0.0024 13.6905 3212.2361)" style="fill:#650000;" cx="1616.883" cy="1599.256" rx="153.589" ry="118.829"/>
			</g>
			<g>
				
					<ellipse transform="matrix(0.0024 -1 1 0.0024 38.3138 3132.4033)" style="fill:#FFFFFF;" cx="1589.176" cy="1546.998" rx="40.758" ry="27.835"/>
			</g>
		</g>
		<g>
			<g>
				
					<ellipse transform="matrix(0.9781 -0.2083 0.2083 0.9781 -264.8173 507.6366)" style="fill:#FFFFFF;" cx="2277.627" cy="1511.055" rx="148.315" ry="188.134"/>
			</g>
			<g>
				<path style="fill:#650000;" d="M2291.829,1716.909c-35.259,0-70.41-13.418-101.34-39.121
					c-38.103-31.665-65.347-78.481-76.711-131.831c-23.816-111.826,30.31-218.457,120.657-237.7
					c90.344-19.248,183.225,56.079,207.043,167.896l0,0c11.362,53.354,5.564,107.212-16.331,151.655
					c-22.651,45.981-59.702,76.538-104.326,86.04C2311.206,1715.894,2301.514,1716.909,2291.829,1716.909z M2263.25,1343.647
					c-6.931,0-13.882,0.713-20.813,2.188c-69.626,14.829-110.486,101.016-91.082,192.114c9.573,44.951,32.192,84.116,63.689,110.288
					c30.181,25.073,64.905,35.054,97.773,28.032c32.871-7.002,60.522-30.239,77.864-65.439
					c18.098-36.738,22.791-81.724,13.218-126.67l0,0C2386.426,1402.129,2325.95,1343.647,2263.25,1343.647z"/>
			</g>
			<g>
				
					<ellipse transform="matrix(0.9781 -0.2083 0.2083 0.9781 -270.0078 503.9749)" style="fill:#650000;" cx="2257.639" cy="1533.861" rx="118.829" ry="153.589"/>
			</g>
			<g>
				
					<ellipse transform="matrix(0.9781 -0.2083 0.2083 0.9781 -257.8062 506.1321)" style="fill:#FFFFFF;" cx="2273.991" cy="1477.017" rx="27.835" ry="40.758"/>
			</g>
		</g>
	</g>
</g>
</svg>
